<?xml version="1.0" encoding="UTF-8" standalone="no"?>
<!DOCTYPE svg PUBLIC "-//W3C//DTD SVG 1.1//EN"
 "http://www.w3.org/Graphics/SVG/1.1/DTD/svg11.dtd">
<!-- Generated by graphviz version 2.40.1 (0)
 -->
<!-- Title: snakemake_dag Pages: 1 -->
<svg width="518pt" height="332pt"
 viewBox="0.00 0.00 518.00 332.00" xmlns="http://www.w3.org/2000/svg" xmlns:xlink="http://www.w3.org/1999/xlink">
<g id="graph0" class="graph" transform="scale(1 1) rotate(0) translate(4 328)">
<title>snakemake_dag</title>
<polygon fill="#ffffff" stroke="transparent" points="-4,4 -4,-328 514,-328 514,4 -4,4"/>
<!-- 0 -->
<g id="node1" class="node">
<title>0</title>
<path fill="none" stroke="#d85656" stroke-width="2" d="M271.5,-36C271.5,-36 241.5,-36 241.5,-36 235.5,-36 229.5,-30 229.5,-24 229.5,-24 229.5,-12 229.5,-12 229.5,-6 235.5,0 241.5,0 241.5,0 271.5,0 271.5,0 277.5,0 283.5,-6 283.5,-12 283.5,-12 283.5,-24 283.5,-24 283.5,-30 277.5,-36 271.5,-36"/>
<text text-anchor="middle" x="256.5" y="-15.5" font-family="sans" font-size="10.00" fill="#000000">all</text>
</g>
<!-- 1 -->
<g id="node2" class="node">
<title>1</title>
<path fill="none" stroke="#d8bc56" stroke-width="2" d="M304,-108C304,-108 209,-108 209,-108 203,-108 197,-102 197,-96 197,-96 197,-84 197,-84 197,-78 203,-72 209,-72 209,-72 304,-72 304,-72 310,-72 316,-78 316,-84 316,-84 316,-96 316,-96 316,-102 310,-108 304,-108"/>
<text text-anchor="middle" x="256.5" y="-87.5" font-family="sans" font-size="10.00" fill="#000000">collect_credible_sets</text>
</g>
<!-- 1&#45;&gt;0 -->
<g id="edge1" class="edge">
<title>1&#45;&gt;0</title>
<path fill="none" stroke="#c0c0c0" stroke-width="2" d="M256.5,-71.8314C256.5,-64.131 256.5,-54.9743 256.5,-46.4166"/>
<polygon fill="#c0c0c0" stroke="#c0c0c0" stroke-width="2" points="260.0001,-46.4132 256.5,-36.4133 253.0001,-46.4133 260.0001,-46.4132"/>
</g>
<!-- 2 -->
<g id="node3" class="node">
<title>2</title>
<path fill="none" stroke="#56d88a" stroke-width="2" d="M221.5,-180C221.5,-180 175.5,-180 175.5,-180 169.5,-180 163.5,-174 163.5,-168 163.5,-168 163.5,-156 163.5,-156 163.5,-150 169.5,-144 175.5,-144 175.5,-144 221.5,-144 221.5,-144 227.5,-144 233.5,-150 233.5,-156 233.5,-156 233.5,-168 233.5,-168 233.5,-174 227.5,-180 221.5,-180"/>
<text text-anchor="middle" x="198.5" y="-159.5" font-family="sans" font-size="10.00" fill="#000000">run_susieR</text>
</g>
<!-- 2&#45;&gt;1 -->
<g id="edge2" class="edge">
<title>2&#45;&gt;1</title>
<path fill="none" stroke="#c0c0c0" stroke-width="2" d="M213.1358,-143.8314C219.8161,-135.5386 227.8568,-125.557 235.1904,-116.4533"/>
<polygon fill="#c0c0c0" stroke="#c0c0c0" stroke-width="2" points="238.1194,-118.3965 241.6671,-108.4133 232.6681,-114.0052 238.1194,-118.3965"/>
</g>
<!-- 3 -->
<g id="node4" class="node">
<title>3</title>
<path fill="none" stroke="#88d856" stroke-width="2" stroke-dasharray="5,2" d="M232.5,-252C232.5,-252 164.5,-252 164.5,-252 158.5,-252 152.5,-246 152.5,-240 152.5,-240 152.5,-228 152.5,-228 152.5,-222 158.5,-216 164.5,-216 164.5,-216 232.5,-216 232.5,-216 238.5,-216 244.5,-222 244.5,-228 244.5,-228 244.5,-240 244.5,-240 244.5,-246 238.5,-252 232.5,-252"/>
<text text-anchor="middle" x="198.5" y="-231.5" font-family="sans" font-size="10.00" fill="#000000">extract_dosage</text>
</g>
<!-- 3&#45;&gt;2 -->
<g id="edge4" class="edge">
<title>3&#45;&gt;2</title>
<path fill="none" stroke="#c0c0c0" stroke-width="2" d="M198.5,-215.8314C198.5,-208.131 198.5,-198.9743 198.5,-190.4166"/>
<polygon fill="#c0c0c0" stroke="#c0c0c0" stroke-width="2" points="202.0001,-190.4132 198.5,-180.4133 195.0001,-190.4133 202.0001,-190.4132"/>
</g>
<!-- 4 -->
<g id="node5" class="node">
<title>4</title>
<path fill="none" stroke="#56c1d8" stroke-width="2" stroke-dasharray="5,2" d="M237,-324C237,-324 12,-324 12,-324 6,-324 0,-318 0,-312 0,-312 0,-300 0,-300 0,-294 6,-288 12,-288 12,-288 237,-288 237,-288 243,-288 249,-294 249,-300 249,-300 249,-312 249,-312 249,-318 243,-324 237,-324"/>
<text text-anchor="middle" x="124.5" y="-309" font-family="sans" font-size="10.00" fill="#000000">subset_gwas</text>
<text text-anchor="middle" x="124.5" y="-298" font-family="sans" font-size="10.00" fill="#000000">locuseq: seq.13125.45_17_25283026_29975846</text>
</g>
<!-- 4&#45;&gt;2 -->
<g id="edge5" class="edge">
<title>4&#45;&gt;2</title>
<path fill="none" stroke="#c0c0c0" stroke-width="2" d="M125.2751,-287.6845C126.7611,-268.7015 131.0672,-238.6871 143.5,-216 149.3692,-205.29 158.0439,-195.3531 166.7778,-186.9993"/>
<polygon fill="#c0c0c0" stroke="#c0c0c0" stroke-width="2" points="169.344,-189.397 174.3993,-180.086 164.6409,-184.2123 169.344,-189.397"/>
</g>
<!-- 4&#45;&gt;3 -->
<g id="edge6" class="edge">
<title>4&#45;&gt;3</title>
<path fill="none" stroke="#c0c0c0" stroke-width="2" d="M143.1733,-287.8314C152.0249,-279.219 162.7486,-268.7851 172.3895,-259.4048"/>
<polygon fill="#c0c0c0" stroke="#c0c0c0" stroke-width="2" points="175.1061,-261.645 179.8326,-252.1628 170.2246,-256.6279 175.1061,-261.645"/>
</g>
<!-- 5 -->
<g id="node6" class="node">
<title>5</title>
<path fill="none" stroke="#56d88a" stroke-width="2" stroke-dasharray="5,2" d="M337.5,-180C337.5,-180 291.5,-180 291.5,-180 285.5,-180 279.5,-174 279.5,-168 279.5,-168 279.5,-156 279.5,-156 279.5,-150 285.5,-144 291.5,-144 291.5,-144 337.5,-144 337.5,-144 343.5,-144 349.5,-150 349.5,-156 349.5,-156 349.5,-168 349.5,-168 349.5,-174 343.5,-180 337.5,-180"/>
<text text-anchor="middle" x="314.5" y="-159.5" font-family="sans" font-size="10.00" fill="#000000">run_susieR</text>
</g>
<!-- 5&#45;&gt;1 -->
<g id="edge3" class="edge">
<title>5&#45;&gt;1</title>
<path fill="none" stroke="#c0c0c0" stroke-width="2" d="M299.8642,-143.8314C293.1839,-135.5386 285.1432,-125.557 277.8096,-116.4533"/>
<polygon fill="#c0c0c0" stroke="#c0c0c0" stroke-width="2" points="280.3319,-114.0052 271.3329,-108.4133 274.8806,-118.3965 280.3319,-114.0052"/>
</g>
<!-- 6 -->
<g id="node7" class="node">
<title>6</title>
<path fill="none" stroke="#88d856" stroke-width="2" stroke-dasharray="5,2" d="M422.5,-252C422.5,-252 354.5,-252 354.5,-252 348.5,-252 342.5,-246 342.5,-240 342.5,-240 342.5,-228 342.5,-228 342.5,-222 348.5,-216 354.5,-216 354.5,-216 422.5,-216 422.5,-216 428.5,-216 434.5,-222 434.5,-228 434.5,-228 434.5,-240 434.5,-240 434.5,-246 428.5,-252 422.5,-252"/>
<text text-anchor="middle" x="388.5" y="-231.5" font-family="sans" font-size="10.00" fill="#000000">extract_dosage</text>
</g>
<!-- 6&#45;&gt;5 -->
<g id="edge7" class="edge">
<title>6&#45;&gt;5</title>
<path fill="none" stroke="#c0c0c0" stroke-width="2" d="M369.8267,-215.8314C360.9751,-207.219 350.2514,-196.7851 340.6105,-187.4048"/>
<polygon fill="#c0c0c0" stroke="#c0c0c0" stroke-width="2" points="342.7754,-184.6279 333.1674,-180.1628 337.8939,-189.645 342.7754,-184.6279"/>
</g>
<!-- 7 -->
<g id="node8" class="node">
<title>7</title>
<path fill="none" stroke="#56c1d8" stroke-width="2" stroke-dasharray="5,2" d="M498,-324C498,-324 279,-324 279,-324 273,-324 267,-318 267,-312 267,-312 267,-300 267,-300 267,-294 273,-288 279,-288 279,-288 498,-288 498,-288 504,-288 510,-294 510,-300 510,-300 510,-312 510,-312 510,-318 504,-324 498,-324"/>
<text text-anchor="middle" x="388.5" y="-309" font-family="sans" font-size="10.00" fill="#000000">subset_gwas</text>
<text text-anchor="middle" x="388.5" y="-298" font-family="sans" font-size="10.00" fill="#000000">locuseq: seq.8221.19_22_24234172_24401503</text>
</g>
<!-- 7&#45;&gt;5 -->
<g id="edge8" class="edge">
<title>7&#45;&gt;5</title>
<path fill="none" stroke="#c0c0c0" stroke-width="2" d="M364.3993,-287.914C353.3668,-278.4021 341.0885,-265.8473 333.5,-252 323.107,-233.035 318.3928,-208.9498 316.2576,-190.4684"/>
<polygon fill="#c0c0c0" stroke="#c0c0c0" stroke-width="2" points="319.7221,-189.9318 315.2751,-180.3155 312.7547,-190.6062 319.7221,-189.9318"/>
</g>
<!-- 7&#45;&gt;6 -->
<g id="edge9" class="edge">
<title>7&#45;&gt;6</title>
<path fill="none" stroke="#c0c0c0" stroke-width="2" d="M388.5,-287.8314C388.5,-280.131 388.5,-270.9743 388.5,-262.4166"/>
<polygon fill="#c0c0c0" stroke="#c0c0c0" stroke-width="2" points="392.0001,-262.4132 388.5,-252.4133 385.0001,-262.4133 392.0001,-262.4132"/>
</g>
</g>
</svg>
