<?xml version="1.0" encoding="UTF-8" standalone="no"?>
<!DOCTYPE svg PUBLIC "-//W3C//DTD SVG 1.1//EN"
 "http://www.w3.org/Graphics/SVG/1.1/DTD/svg11.dtd">
<!-- Generated by graphviz version 2.40.1 (0)
 -->
<!-- Title: snakemake_dag Pages: 1 -->
<svg width="1562pt" height="332pt"
 viewBox="0.00 0.00 1562.00 332.00" xmlns="http://www.w3.org/2000/svg" xmlns:xlink="http://www.w3.org/1999/xlink">
<g id="graph0" class="graph" transform="scale(1 1) rotate(0) translate(4 328)">
<title>snakemake_dag</title>
<polygon fill="#ffffff" stroke="transparent" points="-4,4 -4,-328 1558,-328 1558,4 -4,4"/>
<!-- 0 -->
<g id="node1" class="node">
<title>0</title>
<path fill="none" stroke="#d85656" stroke-width="2" stroke-dasharray="5,2" d="M803.5,-36C803.5,-36 773.5,-36 773.5,-36 767.5,-36 761.5,-30 761.5,-24 761.5,-24 761.5,-12 761.5,-12 761.5,-6 767.5,0 773.5,0 773.5,0 803.5,0 803.5,0 809.5,0 815.5,-6 815.5,-12 815.5,-12 815.5,-24 815.5,-24 815.5,-30 809.5,-36 803.5,-36"/>
<text text-anchor="middle" x="788.5" y="-15.5" font-family="sans" font-size="10.00" fill="#000000">all</text>
</g>
<!-- 1 -->
<g id="node2" class="node">
<title>1</title>
<path fill="none" stroke="#d8bc56" stroke-width="2" stroke-dasharray="5,2" d="M836,-108C836,-108 741,-108 741,-108 735,-108 729,-102 729,-96 729,-96 729,-84 729,-84 729,-78 735,-72 741,-72 741,-72 836,-72 836,-72 842,-72 848,-78 848,-84 848,-84 848,-96 848,-96 848,-102 842,-108 836,-108"/>
<text text-anchor="middle" x="788.5" y="-87.5" font-family="sans" font-size="10.00" fill="#000000">collect_credible_sets</text>
</g>
<!-- 1&#45;&gt;0 -->
<g id="edge1" class="edge">
<title>1&#45;&gt;0</title>
<path fill="none" stroke="#c0c0c0" stroke-width="2" d="M788.5,-71.8314C788.5,-64.131 788.5,-54.9743 788.5,-46.4166"/>
<polygon fill="#c0c0c0" stroke="#c0c0c0" stroke-width="2" points="792.0001,-46.4132 788.5,-36.4133 785.0001,-46.4133 792.0001,-46.4132"/>
</g>
<!-- 2 -->
<g id="node3" class="node">
<title>2</title>
<path fill="none" stroke="#56d88a" stroke-width="2" stroke-dasharray="5,2" d="M221.5,-180C221.5,-180 175.5,-180 175.5,-180 169.5,-180 163.5,-174 163.5,-168 163.5,-168 163.5,-156 163.5,-156 163.5,-150 169.5,-144 175.5,-144 175.5,-144 221.5,-144 221.5,-144 227.5,-144 233.5,-150 233.5,-156 233.5,-156 233.5,-168 233.5,-168 233.5,-174 227.5,-180 221.5,-180"/>
<text text-anchor="middle" x="198.5" y="-159.5" font-family="sans" font-size="10.00" fill="#000000">run_susieR</text>
</g>
<!-- 2&#45;&gt;1 -->
<g id="edge2" class="edge">
<title>2&#45;&gt;1</title>
<path fill="none" stroke="#c0c0c0" stroke-width="2" d="M233.6403,-157.7117C328.6852,-146.113 592.1748,-113.9583 718.7989,-98.5059"/>
<polygon fill="#c0c0c0" stroke="#c0c0c0" stroke-width="2" points="719.2768,-101.9736 728.7791,-97.288 718.4288,-95.0252 719.2768,-101.9736"/>
</g>
<!-- 3 -->
<g id="node4" class="node">
<title>3</title>
<path fill="none" stroke="#88d856" stroke-width="2" stroke-dasharray="5,2" d="M232.5,-252C232.5,-252 164.5,-252 164.5,-252 158.5,-252 152.5,-246 152.5,-240 152.5,-240 152.5,-228 152.5,-228 152.5,-222 158.5,-216 164.5,-216 164.5,-216 232.5,-216 232.5,-216 238.5,-216 244.5,-222 244.5,-228 244.5,-228 244.5,-240 244.5,-240 244.5,-246 238.5,-252 232.5,-252"/>
<text text-anchor="middle" x="198.5" y="-231.5" font-family="sans" font-size="10.00" fill="#000000">extract_dosage</text>
</g>
<!-- 3&#45;&gt;2 -->
<g id="edge8" class="edge">
<title>3&#45;&gt;2</title>
<path fill="none" stroke="#c0c0c0" stroke-width="2" d="M198.5,-215.8314C198.5,-208.131 198.5,-198.9743 198.5,-190.4166"/>
<polygon fill="#c0c0c0" stroke="#c0c0c0" stroke-width="2" points="202.0001,-190.4132 198.5,-180.4133 195.0001,-190.4133 202.0001,-190.4132"/>
</g>
<!-- 4 -->
<g id="node5" class="node">
<title>4</title>
<path fill="none" stroke="#56c1d8" stroke-width="2" stroke-dasharray="5,2" d="M237,-324C237,-324 12,-324 12,-324 6,-324 0,-318 0,-312 0,-312 0,-300 0,-300 0,-294 6,-288 12,-288 12,-288 237,-288 237,-288 243,-288 249,-294 249,-300 249,-300 249,-312 249,-312 249,-318 243,-324 237,-324"/>
<text text-anchor="middle" x="124.5" y="-309" font-family="sans" font-size="10.00" fill="#000000">subset_gwas</text>
<text text-anchor="middle" x="124.5" y="-298" font-family="sans" font-size="10.00" fill="#000000">locuseq: seq.19230.12_22_23927356_25154776</text>
</g>
<!-- 4&#45;&gt;2 -->
<g id="edge9" class="edge">
<title>4&#45;&gt;2</title>
<path fill="none" stroke="#c0c0c0" stroke-width="2" d="M125.2751,-287.6845C126.7611,-268.7015 131.0672,-238.6871 143.5,-216 149.3692,-205.29 158.0439,-195.3531 166.7778,-186.9993"/>
<polygon fill="#c0c0c0" stroke="#c0c0c0" stroke-width="2" points="169.344,-189.397 174.3993,-180.086 164.6409,-184.2123 169.344,-189.397"/>
</g>
<!-- 4&#45;&gt;3 -->
<g id="edge10" class="edge">
<title>4&#45;&gt;3</title>
<path fill="none" stroke="#c0c0c0" stroke-width="2" d="M143.1733,-287.8314C152.0249,-279.219 162.7486,-268.7851 172.3895,-259.4048"/>
<polygon fill="#c0c0c0" stroke="#c0c0c0" stroke-width="2" points="175.1061,-261.645 179.8326,-252.1628 170.2246,-256.6279 175.1061,-261.645"/>
</g>
<!-- 5 -->
<g id="node6" class="node">
<title>5</title>
<path fill="none" stroke="#56d88a" stroke-width="2" stroke-dasharray="5,2" d="M488.5,-180C488.5,-180 442.5,-180 442.5,-180 436.5,-180 430.5,-174 430.5,-168 430.5,-168 430.5,-156 430.5,-156 430.5,-150 436.5,-144 442.5,-144 442.5,-144 488.5,-144 488.5,-144 494.5,-144 500.5,-150 500.5,-156 500.5,-156 500.5,-168 500.5,-168 500.5,-174 494.5,-180 488.5,-180"/>
<text text-anchor="middle" x="465.5" y="-159.5" font-family="sans" font-size="10.00" fill="#000000">run_susieR</text>
</g>
<!-- 5&#45;&gt;1 -->
<g id="edge3" class="edge">
<title>5&#45;&gt;1</title>
<path fill="none" stroke="#c0c0c0" stroke-width="2" d="M500.6815,-154.1577C552.7812,-142.5441 651.5098,-120.5365 718.6493,-105.5704"/>
<polygon fill="#c0c0c0" stroke="#c0c0c0" stroke-width="2" points="719.7298,-108.9156 728.7287,-103.3236 718.2068,-102.0833 719.7298,-108.9156"/>
</g>
<!-- 6 -->
<g id="node7" class="node">
<title>6</title>
<path fill="none" stroke="#88d856" stroke-width="2" stroke-dasharray="5,2" d="M499.5,-252C499.5,-252 431.5,-252 431.5,-252 425.5,-252 419.5,-246 419.5,-240 419.5,-240 419.5,-228 419.5,-228 419.5,-222 425.5,-216 431.5,-216 431.5,-216 499.5,-216 499.5,-216 505.5,-216 511.5,-222 511.5,-228 511.5,-228 511.5,-240 511.5,-240 511.5,-246 505.5,-252 499.5,-252"/>
<text text-anchor="middle" x="465.5" y="-231.5" font-family="sans" font-size="10.00" fill="#000000">extract_dosage</text>
</g>
<!-- 6&#45;&gt;5 -->
<g id="edge11" class="edge">
<title>6&#45;&gt;5</title>
<path fill="none" stroke="#c0c0c0" stroke-width="2" d="M465.5,-215.8314C465.5,-208.131 465.5,-198.9743 465.5,-190.4166"/>
<polygon fill="#c0c0c0" stroke="#c0c0c0" stroke-width="2" points="469.0001,-190.4132 465.5,-180.4133 462.0001,-190.4133 469.0001,-190.4132"/>
</g>
<!-- 7 -->
<g id="node8" class="node">
<title>7</title>
<path fill="none" stroke="#56c1d8" stroke-width="2" stroke-dasharray="5,2" d="M504,-324C504,-324 279,-324 279,-324 273,-324 267,-318 267,-312 267,-312 267,-300 267,-300 267,-294 273,-288 279,-288 279,-288 504,-288 504,-288 510,-288 516,-294 516,-300 516,-300 516,-312 516,-312 516,-318 510,-324 504,-324"/>
<text text-anchor="middle" x="391.5" y="-309" font-family="sans" font-size="10.00" fill="#000000">subset_gwas</text>
<text text-anchor="middle" x="391.5" y="-298" font-family="sans" font-size="10.00" fill="#000000">locuseq: seq.19237.17_22_24176053_25076974</text>
</g>
<!-- 7&#45;&gt;5 -->
<g id="edge12" class="edge">
<title>7&#45;&gt;5</title>
<path fill="none" stroke="#c0c0c0" stroke-width="2" d="M392.2751,-287.6845C393.7611,-268.7015 398.0672,-238.6871 410.5,-216 416.3692,-205.29 425.0439,-195.3531 433.7778,-186.9993"/>
<polygon fill="#c0c0c0" stroke="#c0c0c0" stroke-width="2" points="436.344,-189.397 441.3993,-180.086 431.6409,-184.2123 436.344,-189.397"/>
</g>
<!-- 7&#45;&gt;6 -->
<g id="edge13" class="edge">
<title>7&#45;&gt;6</title>
<path fill="none" stroke="#c0c0c0" stroke-width="2" d="M410.1733,-287.8314C419.0249,-279.219 429.7486,-268.7851 439.3895,-259.4048"/>
<polygon fill="#c0c0c0" stroke="#c0c0c0" stroke-width="2" points="442.1061,-261.645 446.8326,-252.1628 437.2246,-256.6279 442.1061,-261.645"/>
</g>
<!-- 8 -->
<g id="node9" class="node">
<title>8</title>
<path fill="none" stroke="#56d88a" stroke-width="2" stroke-dasharray="5,2" d="M755.5,-180C755.5,-180 709.5,-180 709.5,-180 703.5,-180 697.5,-174 697.5,-168 697.5,-168 697.5,-156 697.5,-156 697.5,-150 703.5,-144 709.5,-144 709.5,-144 755.5,-144 755.5,-144 761.5,-144 767.5,-150 767.5,-156 767.5,-156 767.5,-168 767.5,-168 767.5,-174 761.5,-180 755.5,-180"/>
<text text-anchor="middle" x="732.5" y="-159.5" font-family="sans" font-size="10.00" fill="#000000">run_susieR</text>
</g>
<!-- 8&#45;&gt;1 -->
<g id="edge4" class="edge">
<title>8&#45;&gt;1</title>
<path fill="none" stroke="#c0c0c0" stroke-width="2" d="M746.6312,-143.8314C753.0811,-135.5386 760.8445,-125.557 767.9252,-116.4533"/>
<polygon fill="#c0c0c0" stroke="#c0c0c0" stroke-width="2" points="770.8019,-118.4556 774.1786,-108.4133 765.2764,-114.158 770.8019,-118.4556"/>
</g>
<!-- 9 -->
<g id="node10" class="node">
<title>9</title>
<path fill="none" stroke="#88d856" stroke-width="2" stroke-dasharray="5,2" d="M766.5,-252C766.5,-252 698.5,-252 698.5,-252 692.5,-252 686.5,-246 686.5,-240 686.5,-240 686.5,-228 686.5,-228 686.5,-222 692.5,-216 698.5,-216 698.5,-216 766.5,-216 766.5,-216 772.5,-216 778.5,-222 778.5,-228 778.5,-228 778.5,-240 778.5,-240 778.5,-246 772.5,-252 766.5,-252"/>
<text text-anchor="middle" x="732.5" y="-231.5" font-family="sans" font-size="10.00" fill="#000000">extract_dosage</text>
</g>
<!-- 9&#45;&gt;8 -->
<g id="edge14" class="edge">
<title>9&#45;&gt;8</title>
<path fill="none" stroke="#c0c0c0" stroke-width="2" d="M732.5,-215.8314C732.5,-208.131 732.5,-198.9743 732.5,-190.4166"/>
<polygon fill="#c0c0c0" stroke="#c0c0c0" stroke-width="2" points="736.0001,-190.4132 732.5,-180.4133 729.0001,-190.4133 736.0001,-190.4132"/>
</g>
<!-- 10 -->
<g id="node11" class="node">
<title>10</title>
<path fill="none" stroke="#56c1d8" stroke-width="2" stroke-dasharray="5,2" d="M771,-324C771,-324 546,-324 546,-324 540,-324 534,-318 534,-312 534,-312 534,-300 534,-300 534,-294 540,-288 546,-288 546,-288 771,-288 771,-288 777,-288 783,-294 783,-300 783,-300 783,-312 783,-312 783,-318 777,-324 771,-324"/>
<text text-anchor="middle" x="658.5" y="-309" font-family="sans" font-size="10.00" fill="#000000">subset_gwas</text>
<text text-anchor="middle" x="658.5" y="-298" font-family="sans" font-size="10.00" fill="#000000">locuseq: seq.21548.20_22_23942068_26128449</text>
</g>
<!-- 10&#45;&gt;8 -->
<g id="edge15" class="edge">
<title>10&#45;&gt;8</title>
<path fill="none" stroke="#c0c0c0" stroke-width="2" d="M659.2751,-287.6845C660.7611,-268.7015 665.0672,-238.6871 677.5,-216 683.3692,-205.29 692.0439,-195.3531 700.7778,-186.9993"/>
<polygon fill="#c0c0c0" stroke="#c0c0c0" stroke-width="2" points="703.344,-189.397 708.3993,-180.086 698.6409,-184.2123 703.344,-189.397"/>
</g>
<!-- 10&#45;&gt;9 -->
<g id="edge16" class="edge">
<title>10&#45;&gt;9</title>
<path fill="none" stroke="#c0c0c0" stroke-width="2" d="M677.1733,-287.8314C686.0249,-279.219 696.7486,-268.7851 706.3895,-259.4048"/>
<polygon fill="#c0c0c0" stroke="#c0c0c0" stroke-width="2" points="709.1061,-261.645 713.8326,-252.1628 704.2246,-256.6279 709.1061,-261.645"/>
</g>
<!-- 11 -->
<g id="node12" class="node">
<title>11</title>
<path fill="none" stroke="#56d88a" stroke-width="2" stroke-dasharray="5,2" d="M868.5,-180C868.5,-180 822.5,-180 822.5,-180 816.5,-180 810.5,-174 810.5,-168 810.5,-168 810.5,-156 810.5,-156 810.5,-150 816.5,-144 822.5,-144 822.5,-144 868.5,-144 868.5,-144 874.5,-144 880.5,-150 880.5,-156 880.5,-156 880.5,-168 880.5,-168 880.5,-174 874.5,-180 868.5,-180"/>
<text text-anchor="middle" x="845.5" y="-159.5" font-family="sans" font-size="10.00" fill="#000000">run_susieR</text>
</g>
<!-- 11&#45;&gt;1 -->
<g id="edge5" class="edge">
<title>11&#45;&gt;1</title>
<path fill="none" stroke="#c0c0c0" stroke-width="2" d="M831.1165,-143.8314C824.5514,-135.5386 816.6493,-125.557 809.4422,-116.4533"/>
<polygon fill="#c0c0c0" stroke="#c0c0c0" stroke-width="2" points="812.0284,-114.0813 803.0772,-108.4133 806.5401,-118.4262 812.0284,-114.0813"/>
</g>
<!-- 12 -->
<g id="node13" class="node">
<title>12</title>
<path fill="none" stroke="#88d856" stroke-width="2" stroke-dasharray="5,2" d="M953.5,-252C953.5,-252 885.5,-252 885.5,-252 879.5,-252 873.5,-246 873.5,-240 873.5,-240 873.5,-228 873.5,-228 873.5,-222 879.5,-216 885.5,-216 885.5,-216 953.5,-216 953.5,-216 959.5,-216 965.5,-222 965.5,-228 965.5,-228 965.5,-240 965.5,-240 965.5,-246 959.5,-252 953.5,-252"/>
<text text-anchor="middle" x="919.5" y="-231.5" font-family="sans" font-size="10.00" fill="#000000">extract_dosage</text>
</g>
<!-- 12&#45;&gt;11 -->
<g id="edge17" class="edge">
<title>12&#45;&gt;11</title>
<path fill="none" stroke="#c0c0c0" stroke-width="2" d="M900.8267,-215.8314C891.9751,-207.219 881.2514,-196.7851 871.6105,-187.4048"/>
<polygon fill="#c0c0c0" stroke="#c0c0c0" stroke-width="2" points="873.7754,-184.6279 864.1674,-180.1628 868.8939,-189.645 873.7754,-184.6279"/>
</g>
<!-- 13 -->
<g id="node14" class="node">
<title>13</title>
<path fill="none" stroke="#56c1d8" stroke-width="2" stroke-dasharray="5,2" d="M1026,-324C1026,-324 813,-324 813,-324 807,-324 801,-318 801,-312 801,-312 801,-300 801,-300 801,-294 807,-288 813,-288 813,-288 1026,-288 1026,-288 1032,-288 1038,-294 1038,-300 1038,-300 1038,-312 1038,-312 1038,-318 1032,-324 1026,-324"/>
<text text-anchor="middle" x="919.5" y="-309" font-family="sans" font-size="10.00" fill="#000000">subset_gwas</text>
<text text-anchor="middle" x="919.5" y="-298" font-family="sans" font-size="10.00" fill="#000000">locuseq: seq.4878.3_22_24986145_25000229</text>
</g>
<!-- 13&#45;&gt;11 -->
<g id="edge18" class="edge">
<title>13&#45;&gt;11</title>
<path fill="none" stroke="#c0c0c0" stroke-width="2" d="M895.3993,-287.914C884.3668,-278.4021 872.0885,-265.8473 864.5,-252 854.107,-233.035 849.3928,-208.9498 847.2576,-190.4684"/>
<polygon fill="#c0c0c0" stroke="#c0c0c0" stroke-width="2" points="850.7221,-189.9318 846.2751,-180.3155 843.7547,-190.6062 850.7221,-189.9318"/>
</g>
<!-- 13&#45;&gt;12 -->
<g id="edge19" class="edge">
<title>13&#45;&gt;12</title>
<path fill="none" stroke="#c0c0c0" stroke-width="2" d="M919.5,-287.8314C919.5,-280.131 919.5,-270.9743 919.5,-262.4166"/>
<polygon fill="#c0c0c0" stroke="#c0c0c0" stroke-width="2" points="923.0001,-262.4132 919.5,-252.4133 916.0001,-262.4133 923.0001,-262.4132"/>
</g>
<!-- 14 -->
<g id="node15" class="node">
<title>14</title>
<path fill="none" stroke="#56d88a" stroke-width="2" stroke-dasharray="5,2" d="M1123.5,-180C1123.5,-180 1077.5,-180 1077.5,-180 1071.5,-180 1065.5,-174 1065.5,-168 1065.5,-168 1065.5,-156 1065.5,-156 1065.5,-150 1071.5,-144 1077.5,-144 1077.5,-144 1123.5,-144 1123.5,-144 1129.5,-144 1135.5,-150 1135.5,-156 1135.5,-156 1135.5,-168 1135.5,-168 1135.5,-174 1129.5,-180 1123.5,-180"/>
<text text-anchor="middle" x="1100.5" y="-159.5" font-family="sans" font-size="10.00" fill="#000000">run_susieR</text>
</g>
<!-- 14&#45;&gt;1 -->
<g id="edge6" class="edge">
<title>14&#45;&gt;1</title>
<path fill="none" stroke="#c0c0c0" stroke-width="2" d="M1065.3161,-153.8806C1015.2444,-142.3256 922.3848,-120.8965 858.107,-106.0632"/>
<polygon fill="#c0c0c0" stroke="#c0c0c0" stroke-width="2" points="858.5781,-102.58 848.0472,-103.7417 857.0041,-109.4007 858.5781,-102.58"/>
</g>
<!-- 15 -->
<g id="node16" class="node">
<title>15</title>
<path fill="none" stroke="#88d856" stroke-width="2" stroke-dasharray="5,2" d="M1208.5,-252C1208.5,-252 1140.5,-252 1140.5,-252 1134.5,-252 1128.5,-246 1128.5,-240 1128.5,-240 1128.5,-228 1128.5,-228 1128.5,-222 1134.5,-216 1140.5,-216 1140.5,-216 1208.5,-216 1208.5,-216 1214.5,-216 1220.5,-222 1220.5,-228 1220.5,-228 1220.5,-240 1220.5,-240 1220.5,-246 1214.5,-252 1208.5,-252"/>
<text text-anchor="middle" x="1174.5" y="-231.5" font-family="sans" font-size="10.00" fill="#000000">extract_dosage</text>
</g>
<!-- 15&#45;&gt;14 -->
<g id="edge20" class="edge">
<title>15&#45;&gt;14</title>
<path fill="none" stroke="#c0c0c0" stroke-width="2" d="M1155.8267,-215.8314C1146.9751,-207.219 1136.2514,-196.7851 1126.6105,-187.4048"/>
<polygon fill="#c0c0c0" stroke="#c0c0c0" stroke-width="2" points="1128.7754,-184.6279 1119.1674,-180.1628 1123.8939,-189.645 1128.7754,-184.6279"/>
</g>
<!-- 16 -->
<g id="node17" class="node">
<title>16</title>
<path fill="none" stroke="#56c1d8" stroke-width="2" stroke-dasharray="5,2" d="M1281,-324C1281,-324 1068,-324 1068,-324 1062,-324 1056,-318 1056,-312 1056,-312 1056,-300 1056,-300 1056,-294 1062,-288 1068,-288 1068,-288 1281,-288 1281,-288 1287,-288 1293,-294 1293,-300 1293,-300 1293,-312 1293,-312 1293,-318 1287,-324 1281,-324"/>
<text text-anchor="middle" x="1174.5" y="-309" font-family="sans" font-size="10.00" fill="#000000">subset_gwas</text>
<text text-anchor="middle" x="1174.5" y="-298" font-family="sans" font-size="10.00" fill="#000000">locuseq: seq.5356.2_22_24241101_24400360</text>
</g>
<!-- 16&#45;&gt;14 -->
<g id="edge21" class="edge">
<title>16&#45;&gt;14</title>
<path fill="none" stroke="#c0c0c0" stroke-width="2" d="M1150.3993,-287.914C1139.3668,-278.4021 1127.0885,-265.8473 1119.5,-252 1109.107,-233.035 1104.3928,-208.9498 1102.2576,-190.4684"/>
<polygon fill="#c0c0c0" stroke="#c0c0c0" stroke-width="2" points="1105.7221,-189.9318 1101.2751,-180.3155 1098.7547,-190.6062 1105.7221,-189.9318"/>
</g>
<!-- 16&#45;&gt;15 -->
<g id="edge22" class="edge">
<title>16&#45;&gt;15</title>
<path fill="none" stroke="#c0c0c0" stroke-width="2" d="M1174.5,-287.8314C1174.5,-280.131 1174.5,-270.9743 1174.5,-262.4166"/>
<polygon fill="#c0c0c0" stroke="#c0c0c0" stroke-width="2" points="1178.0001,-262.4132 1174.5,-252.4133 1171.0001,-262.4133 1178.0001,-262.4132"/>
</g>
<!-- 17 -->
<g id="node18" class="node">
<title>17</title>
<path fill="none" stroke="#56d88a" stroke-width="2" stroke-dasharray="5,2" d="M1381.5,-180C1381.5,-180 1335.5,-180 1335.5,-180 1329.5,-180 1323.5,-174 1323.5,-168 1323.5,-168 1323.5,-156 1323.5,-156 1323.5,-150 1329.5,-144 1335.5,-144 1335.5,-144 1381.5,-144 1381.5,-144 1387.5,-144 1393.5,-150 1393.5,-156 1393.5,-156 1393.5,-168 1393.5,-168 1393.5,-174 1387.5,-180 1381.5,-180"/>
<text text-anchor="middle" x="1358.5" y="-159.5" font-family="sans" font-size="10.00" fill="#000000">run_susieR</text>
</g>
<!-- 17&#45;&gt;1 -->
<g id="edge7" class="edge">
<title>17&#45;&gt;1</title>
<path fill="none" stroke="#c0c0c0" stroke-width="2" d="M1323.2741,-157.5504C1230.9655,-145.8904 980.7339,-114.2822 858.1167,-98.7937"/>
<polygon fill="#c0c0c0" stroke="#c0c0c0" stroke-width="2" points="858.4443,-95.3073 848.0845,-97.5265 857.567,-102.2522 858.4443,-95.3073"/>
</g>
<!-- 18 -->
<g id="node19" class="node">
<title>18</title>
<path fill="none" stroke="#88d856" stroke-width="2" stroke-dasharray="5,2" d="M1466.5,-252C1466.5,-252 1398.5,-252 1398.5,-252 1392.5,-252 1386.5,-246 1386.5,-240 1386.5,-240 1386.5,-228 1386.5,-228 1386.5,-222 1392.5,-216 1398.5,-216 1398.5,-216 1466.5,-216 1466.5,-216 1472.5,-216 1478.5,-222 1478.5,-228 1478.5,-228 1478.5,-240 1478.5,-240 1478.5,-246 1472.5,-252 1466.5,-252"/>
<text text-anchor="middle" x="1432.5" y="-231.5" font-family="sans" font-size="10.00" fill="#000000">extract_dosage</text>
</g>
<!-- 18&#45;&gt;17 -->
<g id="edge23" class="edge">
<title>18&#45;&gt;17</title>
<path fill="none" stroke="#c0c0c0" stroke-width="2" d="M1413.8267,-215.8314C1404.9751,-207.219 1394.2514,-196.7851 1384.6105,-187.4048"/>
<polygon fill="#c0c0c0" stroke="#c0c0c0" stroke-width="2" points="1386.7754,-184.6279 1377.1674,-180.1628 1381.8939,-189.645 1386.7754,-184.6279"/>
</g>
<!-- 19 -->
<g id="node20" class="node">
<title>19</title>
<path fill="none" stroke="#56c1d8" stroke-width="2" stroke-dasharray="5,2" d="M1542,-324C1542,-324 1323,-324 1323,-324 1317,-324 1311,-318 1311,-312 1311,-312 1311,-300 1311,-300 1311,-294 1317,-288 1323,-288 1323,-288 1542,-288 1542,-288 1548,-288 1554,-294 1554,-300 1554,-300 1554,-312 1554,-312 1554,-318 1548,-324 1542,-324"/>
<text text-anchor="middle" x="1432.5" y="-309" font-family="sans" font-size="10.00" fill="#000000">subset_gwas</text>
<text text-anchor="middle" x="1432.5" y="-298" font-family="sans" font-size="10.00" fill="#000000">locuseq: seq.8221.19_22_24234172_24401503</text>
</g>
<!-- 19&#45;&gt;17 -->
<g id="edge24" class="edge">
<title>19&#45;&gt;17</title>
<path fill="none" stroke="#c0c0c0" stroke-width="2" d="M1408.3993,-287.914C1397.3668,-278.4021 1385.0885,-265.8473 1377.5,-252 1367.107,-233.035 1362.3928,-208.9498 1360.2576,-190.4684"/>
<polygon fill="#c0c0c0" stroke="#c0c0c0" stroke-width="2" points="1363.7221,-189.9318 1359.2751,-180.3155 1356.7547,-190.6062 1363.7221,-189.9318"/>
</g>
<!-- 19&#45;&gt;18 -->
<g id="edge25" class="edge">
<title>19&#45;&gt;18</title>
<path fill="none" stroke="#c0c0c0" stroke-width="2" d="M1432.5,-287.8314C1432.5,-280.131 1432.5,-270.9743 1432.5,-262.4166"/>
<polygon fill="#c0c0c0" stroke="#c0c0c0" stroke-width="2" points="1436.0001,-262.4132 1432.5,-252.4133 1429.0001,-262.4133 1436.0001,-262.4132"/>
</g>
</g>
</svg>
