<?xml version="1.0" encoding="UTF-8" standalone="no"?>
<!DOCTYPE svg PUBLIC "-//W3C//DTD SVG 1.1//EN"
 "http://www.w3.org/Graphics/SVG/1.1/DTD/svg11.dtd">
<!-- Generated by graphviz version 2.40.1 (0)
 -->
<!-- Title: snakemake_dag Pages: 1 -->
<svg width="524pt" height="404pt"
 viewBox="0.00 0.00 524.00 404.00" xmlns="http://www.w3.org/2000/svg" xmlns:xlink="http://www.w3.org/1999/xlink">
<g id="graph0" class="graph" transform="scale(1 1) rotate(0) translate(4 400)">
<title>snakemake_dag</title>
<polygon fill="#ffffff" stroke="transparent" points="-4,4 -4,-400 520,-400 520,4 -4,4"/>
<!-- 0 -->
<g id="node1" class="node">
<title>0</title>
<path fill="none" stroke="#d85656" stroke-width="2" d="M295.5,-36C295.5,-36 265.5,-36 265.5,-36 259.5,-36 253.5,-30 253.5,-24 253.5,-24 253.5,-12 253.5,-12 253.5,-6 259.5,0 265.5,0 265.5,0 295.5,0 295.5,0 301.5,0 307.5,-6 307.5,-12 307.5,-12 307.5,-24 307.5,-24 307.5,-30 301.5,-36 295.5,-36"/>
<text text-anchor="middle" x="280.5" y="-15.5" font-family="sans" font-size="10.00" fill="#000000">all</text>
</g>
<!-- 1 -->
<g id="node2" class="node">
<title>1</title>
<path fill="none" stroke="#d8ac56" stroke-width="2" d="M328,-108C328,-108 233,-108 233,-108 227,-108 221,-102 221,-96 221,-96 221,-84 221,-84 221,-78 227,-72 233,-72 233,-72 328,-72 328,-72 334,-72 340,-78 340,-84 340,-84 340,-96 340,-96 340,-102 334,-108 328,-108"/>
<text text-anchor="middle" x="280.5" y="-87.5" font-family="sans" font-size="10.00" fill="#000000">collect_credible_sets</text>
</g>
<!-- 1&#45;&gt;0 -->
<g id="edge1" class="edge">
<title>1&#45;&gt;0</title>
<path fill="none" stroke="#c0c0c0" stroke-width="2" d="M280.5,-71.8314C280.5,-64.131 280.5,-54.9743 280.5,-46.4166"/>
<polygon fill="#c0c0c0" stroke="#c0c0c0" stroke-width="2" points="284.0001,-46.4132 280.5,-36.4133 277.0001,-46.4133 284.0001,-46.4132"/>
</g>
<!-- 2 -->
<g id="node3" class="node">
<title>2</title>
<path fill="none" stroke="#59d856" stroke-width="2" d="M229.5,-180C229.5,-180 183.5,-180 183.5,-180 177.5,-180 171.5,-174 171.5,-168 171.5,-168 171.5,-156 171.5,-156 171.5,-150 177.5,-144 183.5,-144 183.5,-144 229.5,-144 229.5,-144 235.5,-144 241.5,-150 241.5,-156 241.5,-156 241.5,-168 241.5,-168 241.5,-174 235.5,-180 229.5,-180"/>
<text text-anchor="middle" x="206.5" y="-159.5" font-family="sans" font-size="10.00" fill="#000000">run_susieR</text>
</g>
<!-- 2&#45;&gt;1 -->
<g id="edge2" class="edge">
<title>2&#45;&gt;1</title>
<path fill="none" stroke="#c0c0c0" stroke-width="2" d="M225.1733,-143.8314C234.0249,-135.219 244.7486,-124.7851 254.3895,-115.4048"/>
<polygon fill="#c0c0c0" stroke="#c0c0c0" stroke-width="2" points="257.1061,-117.645 261.8326,-108.1628 252.2246,-112.6279 257.1061,-117.645"/>
</g>
<!-- 3 -->
<g id="node4" class="node">
<title>3</title>
<path fill="none" stroke="#56a9d8" stroke-width="2" stroke-dasharray="5,2" d="M218.5,-324C218.5,-324 164.5,-324 164.5,-324 158.5,-324 152.5,-318 152.5,-312 152.5,-312 152.5,-300 152.5,-300 152.5,-294 158.5,-288 164.5,-288 164.5,-288 218.5,-288 218.5,-288 224.5,-288 230.5,-294 230.5,-300 230.5,-300 230.5,-312 230.5,-312 230.5,-318 224.5,-324 218.5,-324"/>
<text text-anchor="middle" x="191.5" y="-303.5" font-family="sans" font-size="10.00" fill="#000000">subset_pgen</text>
</g>
<!-- 3&#45;&gt;2 -->
<g id="edge4" class="edge">
<title>3&#45;&gt;2</title>
<path fill="none" stroke="#c0c0c0" stroke-width="2" d="M191.4769,-287.6585C191.6507,-269.422 192.4567,-240.6814 195.5,-216 196.5373,-207.5875 198.174,-198.5303 199.8711,-190.2822"/>
<polygon fill="#c0c0c0" stroke="#c0c0c0" stroke-width="2" points="203.3204,-190.8906 202.0124,-180.3768 196.4784,-189.4115 203.3204,-190.8906"/>
</g>
<!-- 5 -->
<g id="node6" class="node">
<title>5</title>
<path fill="none" stroke="#afd856" stroke-width="2" stroke-dasharray="5,2" d="M266.5,-252C266.5,-252 216.5,-252 216.5,-252 210.5,-252 204.5,-246 204.5,-240 204.5,-240 204.5,-228 204.5,-228 204.5,-222 210.5,-216 216.5,-216 216.5,-216 266.5,-216 266.5,-216 272.5,-216 278.5,-222 278.5,-228 278.5,-228 278.5,-240 278.5,-240 278.5,-246 272.5,-252 266.5,-252"/>
<text text-anchor="middle" x="241.5" y="-231.5" font-family="sans" font-size="10.00" fill="#000000">compute_ld</text>
</g>
<!-- 3&#45;&gt;5 -->
<g id="edge8" class="edge">
<title>3&#45;&gt;5</title>
<path fill="none" stroke="#c0c0c0" stroke-width="2" d="M204.1171,-287.8314C209.8172,-279.6232 216.6663,-269.7606 222.9359,-260.7323"/>
<polygon fill="#c0c0c0" stroke="#c0c0c0" stroke-width="2" points="225.8838,-262.6234 228.713,-252.4133 220.1342,-258.6306 225.8838,-262.6234"/>
</g>
<!-- 4 -->
<g id="node5" class="node">
<title>4</title>
<path fill="none" stroke="#56d8a9" stroke-width="2" stroke-dasharray="5,2" d="M237,-396C237,-396 12,-396 12,-396 6,-396 0,-390 0,-384 0,-384 0,-372 0,-372 0,-366 6,-360 12,-360 12,-360 237,-360 237,-360 243,-360 249,-366 249,-372 249,-372 249,-384 249,-384 249,-390 243,-396 237,-396"/>
<text text-anchor="middle" x="124.5" y="-381" font-family="sans" font-size="10.00" fill="#000000">subset_gwas</text>
<text text-anchor="middle" x="124.5" y="-370" font-family="sans" font-size="10.00" fill="#000000">locuseq: seq.15333.11_17_25854347_28884532</text>
</g>
<!-- 4&#45;&gt;2 -->
<g id="edge5" class="edge">
<title>4&#45;&gt;2</title>
<path fill="none" stroke="#c0c0c0" stroke-width="2" d="M126.9591,-359.7005C129.7624,-341.2489 135.0791,-312.1235 143.5,-288 155.9363,-252.3738 176.266,-213.9229 190.4573,-188.993"/>
<polygon fill="#c0c0c0" stroke="#c0c0c0" stroke-width="2" points="193.6022,-190.5456 195.5664,-180.1344 187.5384,-187.0483 193.6022,-190.5456"/>
</g>
<!-- 4&#45;&gt;3 -->
<g id="edge7" class="edge">
<title>4&#45;&gt;3</title>
<path fill="none" stroke="#c0c0c0" stroke-width="2" d="M141.4069,-359.8314C149.2813,-351.3694 158.792,-341.1489 167.4013,-331.8971"/>
<polygon fill="#c0c0c0" stroke="#c0c0c0" stroke-width="2" points="170.1153,-334.1183 174.3654,-324.4133 164.9908,-329.3497 170.1153,-334.1183"/>
</g>
<!-- 5&#45;&gt;2 -->
<g id="edge6" class="edge">
<title>5&#45;&gt;2</title>
<path fill="none" stroke="#c0c0c0" stroke-width="2" d="M232.668,-215.8314C228.8014,-207.8771 224.1794,-198.369 219.9032,-189.5723"/>
<polygon fill="#c0c0c0" stroke="#c0c0c0" stroke-width="2" points="222.9707,-187.8768 215.4509,-180.4133 216.6751,-190.9371 222.9707,-187.8768"/>
</g>
<!-- 6 -->
<g id="node7" class="node">
<title>6</title>
<path fill="none" stroke="#59d856" stroke-width="2" d="M357.5,-180C357.5,-180 311.5,-180 311.5,-180 305.5,-180 299.5,-174 299.5,-168 299.5,-168 299.5,-156 299.5,-156 299.5,-150 305.5,-144 311.5,-144 311.5,-144 357.5,-144 357.5,-144 363.5,-144 369.5,-150 369.5,-156 369.5,-156 369.5,-168 369.5,-168 369.5,-174 363.5,-180 357.5,-180"/>
<text text-anchor="middle" x="334.5" y="-159.5" font-family="sans" font-size="10.00" fill="#000000">run_susieR</text>
</g>
<!-- 6&#45;&gt;1 -->
<g id="edge3" class="edge">
<title>6&#45;&gt;1</title>
<path fill="none" stroke="#c0c0c0" stroke-width="2" d="M320.8735,-143.8314C314.654,-135.5386 307.1678,-125.557 300.34,-116.4533"/>
<polygon fill="#c0c0c0" stroke="#c0c0c0" stroke-width="2" points="303.11,-114.3133 294.31,-108.4133 297.51,-118.5133 303.11,-114.3133"/>
</g>
<!-- 7 -->
<g id="node8" class="node">
<title>7</title>
<path fill="none" stroke="#56a9d8" stroke-width="2" stroke-dasharray="5,2" d="M418.5,-324C418.5,-324 364.5,-324 364.5,-324 358.5,-324 352.5,-318 352.5,-312 352.5,-312 352.5,-300 352.5,-300 352.5,-294 358.5,-288 364.5,-288 364.5,-288 418.5,-288 418.5,-288 424.5,-288 430.5,-294 430.5,-300 430.5,-300 430.5,-312 430.5,-312 430.5,-318 424.5,-324 418.5,-324"/>
<text text-anchor="middle" x="391.5" y="-303.5" font-family="sans" font-size="10.00" fill="#000000">subset_pgen</text>
</g>
<!-- 7&#45;&gt;6 -->
<g id="edge9" class="edge">
<title>7&#45;&gt;6</title>
<path fill="none" stroke="#c0c0c0" stroke-width="2" d="M384.2809,-287.7623C374.4731,-262.9846 356.8533,-218.4714 345.4226,-189.5939"/>
<polygon fill="#c0c0c0" stroke="#c0c0c0" stroke-width="2" points="348.5953,-188.0995 341.6605,-180.0896 342.0867,-190.6759 348.5953,-188.0995"/>
</g>
<!-- 9 -->
<g id="node10" class="node">
<title>9</title>
<path fill="none" stroke="#afd856" stroke-width="2" stroke-dasharray="5,2" d="M443.5,-252C443.5,-252 393.5,-252 393.5,-252 387.5,-252 381.5,-246 381.5,-240 381.5,-240 381.5,-228 381.5,-228 381.5,-222 387.5,-216 393.5,-216 393.5,-216 443.5,-216 443.5,-216 449.5,-216 455.5,-222 455.5,-228 455.5,-228 455.5,-240 455.5,-240 455.5,-246 449.5,-252 443.5,-252"/>
<text text-anchor="middle" x="418.5" y="-231.5" font-family="sans" font-size="10.00" fill="#000000">compute_ld</text>
</g>
<!-- 7&#45;&gt;9 -->
<g id="edge13" class="edge">
<title>7&#45;&gt;9</title>
<path fill="none" stroke="#c0c0c0" stroke-width="2" d="M398.3132,-287.8314C401.2644,-279.9617 404.7858,-270.5712 408.055,-261.8533"/>
<polygon fill="#c0c0c0" stroke="#c0c0c0" stroke-width="2" points="411.3609,-263.0055 411.595,-252.4133 404.8066,-260.5476 411.3609,-263.0055"/>
</g>
<!-- 8 -->
<g id="node9" class="node">
<title>8</title>
<path fill="none" stroke="#56d8a9" stroke-width="2" stroke-dasharray="5,2" d="M504,-396C504,-396 279,-396 279,-396 273,-396 267,-390 267,-384 267,-384 267,-372 267,-372 267,-366 273,-360 279,-360 279,-360 504,-360 504,-360 510,-360 516,-366 516,-372 516,-372 516,-384 516,-384 516,-390 510,-396 504,-396"/>
<text text-anchor="middle" x="391.5" y="-381" font-family="sans" font-size="10.00" fill="#000000">subset_gwas</text>
<text text-anchor="middle" x="391.5" y="-370" font-family="sans" font-size="10.00" fill="#000000">locuseq: seq.8280.238_17_26592946_26739127</text>
</g>
<!-- 8&#45;&gt;6 -->
<g id="edge10" class="edge">
<title>8&#45;&gt;6</title>
<path fill="none" stroke="#c0c0c0" stroke-width="2" d="M369.6116,-359.7713C359.7809,-350.2257 349.1419,-337.6837 343.5,-324 325.3823,-280.0577 327.2385,-223.661 330.609,-190.3192"/>
<polygon fill="#c0c0c0" stroke="#c0c0c0" stroke-width="2" points="334.0906,-190.6783 331.7331,-180.3491 327.1346,-189.8939 334.0906,-190.6783"/>
</g>
<!-- 8&#45;&gt;7 -->
<g id="edge12" class="edge">
<title>8&#45;&gt;7</title>
<path fill="none" stroke="#c0c0c0" stroke-width="2" d="M391.5,-359.8314C391.5,-352.131 391.5,-342.9743 391.5,-334.4166"/>
<polygon fill="#c0c0c0" stroke="#c0c0c0" stroke-width="2" points="395.0001,-334.4132 391.5,-324.4133 388.0001,-334.4133 395.0001,-334.4132"/>
</g>
<!-- 9&#45;&gt;6 -->
<g id="edge11" class="edge">
<title>9&#45;&gt;6</title>
<path fill="none" stroke="#c0c0c0" stroke-width="2" d="M397.3033,-215.8314C387.0566,-207.0485 374.5997,-196.3712 363.4903,-186.8489"/>
<polygon fill="#c0c0c0" stroke="#c0c0c0" stroke-width="2" points="365.5603,-184.0134 355.69,-180.1628 361.0048,-189.3282 365.5603,-184.0134"/>
</g>
</g>
</svg>
